#!OML:ASF E:\emotionWalksFemale\Project 1\Capture day 1\Session 1\Female1.ASF
:FULLY-SPECIFIED
:DEGREES
113
root 8.93988 15.5172 22.5992 180.661 1.01271 180.282
lowerback 10.8428 0.898122 -0.421064
upperback -4.02429 1.11603 -0.643011
thorax -10.4311 0.552645 -0.677048
lowerneck -6.89305 -3.33633 -7.16885
upperneck 4.54165 -4.44574 9.0059
head 2.836 -2.06178 3.6853
rclavicle 1.58655e-014 -1.2921e-014
rhumerus -49.8609 30.9179 -74.0672
rradius 33.2427
rwrist 26.5355
rhand -1.74518 -53.2555
rfingers 7.12502
rthumb 23.9178 -81.786
lclavicle 1.58655e-014 -1.2921e-014
lhumerus -49.3753 -12.1644 45.3061
lradius 33.0773
lwrist -22.0648
lhand 5.59944 -35.3238
lfingers 7.12502
lthumb 30.9416 -7.91119
rfemur -2.9813 15.7204 25.9592
rtibia 17.8048
rfoot -15.9273 -27.2199
rtoes 3.10566
lfemur -7.36224 -16.2447 -23.393
ltibia 23.196
lfoot -20.406 16.3775
ltoes -27.1728
114
root 8.94045 15.5155 22.5999 180.714 0.867984 180.3
lowerback 10.9349 0.873241 -0.402076
upperback -3.95779 1.0828 -0.633437
thorax -10.412 0.534509 -0.671439
lowerneck -6.85128 -3.35252 -7.22824
upperneck 4.20837 -4.44164 9.00824
head 2.73091 -2.06381 3.69769
rclavicle -1.09332e-014 2.5842e-015
rhumerus -49.9627 31.29 -72.8875
rradius 33.2136
rwrist 26.4054
rhand -1.69407 -53.4364
rfingers 7.12502
rthumb 23.9668 -81.9604
lclavicle -1.09332e-014 2.5842e-015
lhumerus -49.033 -11.5939 43.2621
lradius 33.075
lwrist -21.9793
lhand 4.50465 -36.317
lfingers 7.12502
lthumb 29.8974 -8.71118
rfemur -3.06807 15.5304 25.9467
rtibia 17.8458
rfoot -16.1007 -27.1683
rtoes 3.69117
lfemur -7.54358 -16.179 -23.3379
ltibia 23.3664
lfoot -20.2869 16.2823
ltoes -27.5784
115
root 8.94164 15.5161 22.6016 180.804 0.768829 180.332
lowerback 11.0051 0.865741 -0.358977
upperback -3.87435 1.07401 -0.653714
thorax -10.3598 0.525504 -0.715632
lowerneck -6.76974 -3.347 -7.25874
upperneck 3.7848 -4.42587 9.17467
head 2.59499 -2.05921 3.75715
rclavicle 8.0632e-015 -5.76476e-015
rhumerus -49.8846 31.4192 -71.5624
rradius 33.0837
rwrist 26.566
rhand -1.62355 -53.3088
rfingers 7.12502
rthumb 24.0344 -81.8239
lclavicle 8.0632e-015 -5.76476e-015
lhumerus -48.6272 -11.0137 41.2455
lradius 33.0887
lwrist -21.8529
lhand 3.99115 -36.7334
lfingers 7.12502
lthumb 29.4073 -9.04043
rfemur -3.23849 15.4432 25.9408
rtibia 17.9685
rfoot -16.3109 -27.1028
rtoes 4.25631
lfemur -7.76058 -16.0188 -23.2483
ltibia 23.5136
lfoot -20.2944 16.0017
ltoes -27.1704
116
root 8.94205 15.5176 22.603 180.944 0.638949 180.313
lowerback 11.0301 0.873743 -0.358014
upperback -3.80401 1.07931 -0.694179
thorax -10.2958 0.525907 -0.75997
lowerneck -6.65778 -3.39735 -7.18168
upperneck 3.32071 -4.48354 9.19919
head 2.44254 -2.09491 3.75251
rclavicle -2.80783e-015 8.15017e-015
rhumerus -49.8919 31.4122 -70.1677
rradius 33.0377
rwrist 26.6919
rhand -1.69155 -52.9961
rfingers 7.12502
rthumb 23.9692 -81.5198
lclavicle -2.80783e-015 8.15017e-015
lhumerus -48.2636 -10.487 39.2925
lradius 33.3444
lwrist -21.2877
lhand 4.06627 -36.1742
lfingers 7.12502
lthumb 29.479 -8.49382
rfemur -3.47159 15.2349 25.8653
rtibia 18.1133
rfoot -16.3566 -27.0432
rtoes 3.71627
lfemur -8.03499 -15.7424 -23.1975
ltibia 23.6763
lfoot -20.4312 15.5947
ltoes -26.717
117
root 8.94224 15.5147 22.6042 181.046 0.530537 180.27
lowerback 11.0522 0.894715 -0.421551
upperback -3.71985 1.09598 -0.689607
thorax -10.2168 0.537466 -0.721391
lowerneck -6.52984 -3.48292 -7.11712
upperneck 2.82398 -4.56932 9.02893
head 2.27548 -2.14858 3.69001
rclavicle -6.34247e-015 -6.55989e-015
rhumerus -49.9082 31.46 -68.7079
rradius 33.0221
rwrist 26.7803
rhand -1.78636 -52.8563
rfingers 7.12502
rthumb 23.8783 -81.392
lclavicle -6.34247e-015 -6.55989e-015
lhumerus -47.9436 -9.76948 37.3471
lradius 33.6258
lwrist -20.5749
lhand 4.05768 -35.8437
lfingers 7.12502
lthumb 29.4708 -8.16193
rfemur -3.67654 14.9298 25.7687
rtibia 18.2611
rfoot -16.4309 -26.928
rtoes 3.12152
lfemur -8.28572 -15.4867 -23.1952
ltibia 23.8572
lfoot -20.3737 15.4867
ltoes -27.9995
118
root 8.94313 15.51 22.6047 181.094 0.432065 180.293
lowerback 11.1092 0.903388 -0.456036
upperback -3.62093 1.10422 -0.630767
thorax -10.1428 0.544498 -0.639592
lowerneck -6.41228 -3.54513 -7.22472
upperneck 2.22369 -4.60094 8.62766
head 2.30248 -2.19685 3.98773
rclavicle 2.20713e-014 -2.78299e-015
rhumerus -49.875 31.6172 -67.2342
rradius 33.0752
rwrist 27.027
rhand -1.46047 -52.9403
rfingers 7.12502
rthumb 24.1908 -81.4346
lclavicle 2.20713e-014 -2.78299e-015
lhumerus -47.786 -9.03866 35.4907
lradius 33.8603
lwrist -20.0964
lhand 3.79229 -35.4701
lfingers 7.12502
lthumb 29.2174 -7.74391
rfemur -3.83782 14.611 25.7597
rtibia 18.4364
rfoot -16.5824 -26.7938
rtoes 2.39001
lfemur -8.46782 -15.3281 -23.1428
ltibia 24.0358
lfoot -20.3573 15.3435
ltoes -28.7167
119
root 8.94361 15.508 22.6047 181.203 0.28693 180.36
lowerback 11.182 0.888078 -0.414172
upperback -3.56666 1.09124 -0.588477
thorax -10.1259 0.536168 -0.615604
lowerneck -6.40912 -3.60065 -7.24985
upperneck 1.9467 -4.65597 8.568
head 2.2124 -2.22756 3.96708
rclavicle -7.51033e-015 1.39149e-015
rhumerus -49.9008 31.7266 -65.8083
rradius 33.1361
rwrist 27.2864
rhand -1.28572 -52.9396
rfingers 7.12502
rthumb 24.3583 -81.4116
lclavicle -7.51033e-015 1.39149e-015
lhumerus -47.7059 -8.38562 33.633
lradius 34.149
lwrist -19.6634
lhand 3.8909 -34.7133
lfingers 7.12502
lthumb 29.3115 -7.00354
rfemur -4.01703 14.3514 25.798
rtibia 18.5543
rfoot -16.6727 -26.7472
rtoes 1.65796
lfemur -8.74581 -15.1663 -23.0158
ltibia 24.2636
lfoot -20.5052 14.9585
ltoes -28.5742
120
root 8.94404 15.5059 22.6062 181.376 0.121435 180.433
lowerback 11.2834 0.870835 -0.344658
upperback -3.56535 1.0787 -0.57103
thorax -10.1833 0.525706 -0.635459
lowerneck -6.35791 -3.64044 -7.2488
upperneck 1.70838 -4.70168 8.56184
head 2.12685 -2.25375 3.96175
rclavicle 6.4605e-016 -2.98177e-015
rhumerus -50.1656 31.7048 -64.3925
rradius 33.4635
rwrist 27.4062
rhand -1.45851 -52.9257
rfingers 7.12502
rthumb 24.1927 -81.4198
lclavicle 6.4605e-016 -2.98177e-015
lhumerus -47.4973 -7.62036 31.6696
lradius 34.2723
lwrist -19.3896
lhand 4.21037 -34.2296
lfingers 7.12502
lthumb 29.6165 -6.57355
rfemur -4.23003 14.1634 25.8227
rtibia 18.5939
rfoot -16.8483 -26.72
rtoes 1.46642
lfemur -9.15655 -14.9818 -22.8546
ltibia 24.5517
lfoot -20.5063 14.6835
ltoes -29.2319
121
root 8.94424 15.5055 22.609 181.531 -0.0655317 180.561
lowerback 11.4436 0.85216 -0.216816
upperback -3.57658 1.04271 -0.513689
thorax -10.2894 0.487366 -0.639267
lowerneck -6.29641 -3.63199 -7.3559
upperneck 1.53246 -4.68109 8.63458
head 2.06144 -2.24587 4.00996
rclavicle -8.08805e-015 7.15625e-015
rhumerus -50.6268 31.8023 -63.0322
rradius 34.1393
rwrist 27.3182
rhand -1.52676 -53.2827
rfingers 7.12502
rthumb 24.1272 -81.7856
lclavicle -8.08805e-015 7.15625e-015
lhumerus -47.277 -6.69935 29.683
lradius 34.2478
lwrist -19.2987
lhand 4.34105 -34.0225
lfingers 7.12502
lthumb 29.7413 -6.38871
rfemur -4.4469 13.9711 25.9062
rtibia 18.6409
rfoot -16.9707 -26.6741
rtoes 1.28983
lfemur -9.55426 -14.7935 -22.6295
ltibia 24.8448
lfoot -20.528 14.3848
ltoes -29.6222
